<?xml version="1.0" encoding="UTF-8" standalone="no"?>
<!-- Created with Inkscape (http://www.inkscape.org/) -->

<svg
   xmlns:dc="http://purl.org/dc/elements/1.1/"
   xmlns:cc="http://creativecommons.org/ns#"
   xmlns:rdf="http://www.w3.org/1999/02/22-rdf-syntax-ns#"
   xmlns:svg="http://www.w3.org/2000/svg"
   xmlns="http://www.w3.org/2000/svg"
   xmlns:sodipodi="http://sodipodi.sourceforge.net/DTD/sodipodi-0.dtd"
   xmlns:inkscape="http://www.inkscape.org/namespaces/inkscape"
   width="210mm"
   height="297mm"
   viewBox="0 0 210 297"
   version="1.1"
   id="svg8"
   inkscape:version="0.92.4 (5da689c313, 2019-01-14)"
   sodipodi:docname="drawing.svg">
  <defs
     id="defs2" />
  <sodipodi:namedview
     id="base"
     pagecolor="#ffffff"
     bordercolor="#666666"
     borderopacity="1.0"
     inkscape:pageopacity="0.0"
     inkscape:pageshadow="2"
     inkscape:zoom="1"
     inkscape:cx="-13.980498"
     inkscape:cy="514.49413"
     inkscape:document-units="px"
     inkscape:current-layer="layer1"
     showgrid="false"
     showborder="false"
     inkscape:window-width="1366"
     inkscape:window-height="705"
     inkscape:window-x="-8"
     inkscape:window-y="-8"
     inkscape:window-maximized="1" />
  <metadata
     id="metadata5">
    <rdf:RDF>
      <cc:Work
         rdf:about="">
        <dc:format>image/svg+xml</dc:format>
        <dc:type
           rdf:resource="http://purl.org/dc/dcmitype/StillImage" />
        <dc:title></dc:title>
      </cc:Work>
    </rdf:RDF>
  </metadata>
  <g
     inkscape:label="Layer 1"
     inkscape:groupmode="layer"
     id="layer1">
    <path
       style="fill:none;fill-rule:evenodd;stroke:#000000;stroke-width:26.32440948;stroke-miterlimit:4;stroke-dasharray:none;stroke-opacity:1"
       d="M 245.12695 761.88477 A 205.3059 144.38603 0 0 0 245.09766 761.30664 A 205.3059 144.38603 0 0 0 242.625 746.97852 A 205.3059 144.38603 0 0 0 238.13086 732.89648 A 205.3059 144.38603 0 0 0 231.6582 719.20117 A 205.3059 144.38603 0 0 0 223.27539 706.02734 A 205.3059 144.38603 0 0 0 213.06445 693.50781 A 205.3059 144.38603 0 0 0 201.12695 681.76758 A 205.3059 144.38603 0 0 0 187.58398 670.92578 A 205.3059 144.38603 0 0 0 172.56836 661.08789 A 205.3059 144.38603 0 0 0 156.23047 652.35352 A 205.3059 144.38603 0 0 0 138.73438 644.80859 A 205.3059 144.38603 0 0 0 120.25586 638.53125 A 205.3059 144.38603 0 0 0 100.97852 633.58203 A 205.3059 144.38603 0 0 0 81.09375 630.01172 A 205.3059 144.38603 0 0 0 60.802734 627.85547 A 205.3059 144.38603 0 0 0 40.306641 627.13281 A 205.3059 144.38603 0 0 0 25.783203 627.49609 A 205.3059 144.38603 0 0 0 5.4101562 629.23438 A 205.3059 144.38603 0 0 0 -14.613281 632.39453 A 205.3059 144.38603 0 0 0 -34.087891 636.94531 A 205.3059 144.38603 0 0 0 -52.820312 642.8418 A 205.3059 144.38603 0 0 0 -70.621094 650.02344 A 205.3059 144.38603 0 0 0 -87.314453 658.41797 A 205.3059 144.38603 0 0 0 -102.73242 667.94336 A 205.3059 144.38603 0 0 0 -116.7207 678.50391 A 205.3059 144.38603 0 0 0 -129.14062 689.99414 A 205.3059 144.38603 0 0 0 -139.86719 702.29688 A 205.3059 144.38603 0 0 0 -148.79297 715.29297 A 205.3059 144.38603 0 0 0 -155.83008 728.85156 A 205.3059 144.38603 0 0 0 -160.9082 742.83398 A 205.3059 144.38603 0 0 0 -163.97461 757.10547 A 205.3059 144.38603 0 0 0 -165 771.51953 A 205.3059 144.38603 0 0 0 -164.48633 781.73242 A 205.3059 144.38603 0 0 0 -163.04102 790.11133 A 264.5 264.5 0 0 0 29.5 873.51953 A 264.5 264.5 0 0 0 245.12695 761.88477 z "
       id="path837"
       transform="scale(0.26458333)" />
    <path
       style="fill:none;fill-rule:evenodd;stroke:#000000;stroke-width:26.32440948;stroke-miterlimit:4;stroke-dasharray:none;stroke-opacity:1"
       d="M 29.5 344.51953 A 264.5 264.5 0 0 0 -235 609.01953 A 264.5 264.5 0 0 0 -163.04102 790.11133 A 205.3059 144.38603 0 0 1 -164.48633 781.73242 A 205.3059 144.38603 0 0 1 -165 771.51953 A 205.3059 144.38603 0 0 1 -163.97461 757.10547 A 205.3059 144.38603 0 0 1 -160.9082 742.83398 A 205.3059 144.38603 0 0 1 -155.83008 728.85156 A 205.3059 144.38603 0 0 1 -148.79297 715.29297 A 205.3059 144.38603 0 0 1 -139.86719 702.29688 A 205.3059 144.38603 0 0 1 -129.14062 689.99414 A 205.3059 144.38603 0 0 1 -116.7207 678.50391 A 205.3059 144.38603 0 0 1 -102.73242 667.94336 A 205.3059 144.38603 0 0 1 -87.314453 658.41797 A 205.3059 144.38603 0 0 1 -70.621094 650.02344 A 205.3059 144.38603 0 0 1 -52.820312 642.8418 A 205.3059 144.38603 0 0 1 -34.087891 636.94531 A 205.3059 144.38603 0 0 1 -14.613281 632.39453 A 205.3059 144.38603 0 0 1 5.4101562 629.23438 A 205.3059 144.38603 0 0 1 25.783203 627.49609 A 205.3059 144.38603 0 0 1 40.306641 627.13281 A 205.3059 144.38603 0 0 1 60.802734 627.85547 A 205.3059 144.38603 0 0 1 81.09375 630.01172 A 205.3059 144.38603 0 0 1 100.97852 633.58203 A 205.3059 144.38603 0 0 1 120.25586 638.53125 A 205.3059 144.38603 0 0 1 138.73438 644.80859 A 205.3059 144.38603 0 0 1 156.23047 652.35352 A 205.3059 144.38603 0 0 1 172.56836 661.08789 A 205.3059 144.38603 0 0 1 187.58398 670.92578 A 205.3059 144.38603 0 0 1 201.12695 681.76758 A 205.3059 144.38603 0 0 1 213.06445 693.50781 A 205.3059 144.38603 0 0 1 223.27539 706.02734 A 205.3059 144.38603 0 0 1 231.6582 719.20117 A 205.3059 144.38603 0 0 1 238.13086 732.89648 A 205.3059 144.38603 0 0 1 242.625 746.97852 A 205.3059 144.38603 0 0 1 245.09766 761.30664 A 205.3059 144.38603 0 0 1 245.12695 761.88477 A 264.5 264.5 0 0 0 294 609.01953 A 264.5 264.5 0 0 0 29.5 344.51953 z "
       id="path821"
       transform="scale(0.26458333)" />
    <circle
       style="fill:#000000;fill-rule:evenodd;stroke-width:0.26458332"
       id="path823"
       cx="7.8052082"
       cy="136.13339"
       r="19.84375" />
    <path
       style="opacity:0.73299997;fill:#000000;fill-opacity:1;stroke:#000000;stroke-width:26.32440948;stroke-linecap:butt;stroke-linejoin:round;stroke-miterlimit:4;stroke-dasharray:none;stroke-dashoffset:0;stroke-opacity:1;paint-order:normal"
       d="m 16.719502,859.55063 c -26.6774704,-1.67762 -51.27303,-6.86039 -75.337138,-15.87501 -31.822796,-11.92109 -64.655604,-32.82159 -85.803644,-54.62034 -5.71546,-5.89132 -6.17561,-6.71067 -6.64374,-11.82973 -0.81494,-8.91147 1.1242,-23.68441 4.3973,-33.5 6.71102,-20.1254 19.26175,-38.01625 37.38722,-53.29483 27.869275,-23.49197 63.174532,-38.78748 107.0971316,-46.39833 17.7337504,-3.07288 63.2880204,-3.3268 81.9028704,-0.45652 59.668318,9.20041 109.134468,36.29729 134.529808,73.69358 8.48184,12.49006 18.23096,37.68935 16.09748,41.60837 -2.18977,4.0224 -19.10751,23.04515 -28.02323,31.51005 -31.4886,29.89638 -70.19756,51.25754 -112.104058,61.86351 -23.95009,6.06144 -50.79293,8.72719 -73.5,7.29925 z"
       id="path841"
       inkscape:connector-curvature="0"
       transform="scale(0.26458333)" />
    <path
       style="opacity:0.73299997;fill:#000000;fill-opacity:1;stroke:#000000;stroke-width:26.32440948;stroke-linecap:butt;stroke-linejoin:round;stroke-miterlimit:4;stroke-dasharray:none;stroke-dashoffset:0;stroke-opacity:1;paint-order:normal"
       d="M 9.2195016,859.15516 C -46.186728,854.54461 -97.628378,831.956 -140.38528,793.462 l -10.10477,-9.09733 -0.66449,-6.48574 c -0.89405,-8.72641 0.81515,-22.77797 3.99835,-32.8711 10.38657,-32.93316 36.63791,-60.18537 76.875692,-79.80669 33.99293,-16.57611 68.7255996,-24.09926 111,-24.04278 42.44387,0.0567 78.592698,8.16572 112.467618,25.22905 19.3558,9.74981 31.53832,18.35535 45.07203,31.83814 15.33325,15.27557 24.89332,30.5805 29.88274,47.83998 3.55075,12.28276 3.71586,11.21928 -3.08056,19.84201 -18.9935,24.09736 -48.11402,48.45963 -76.26958,63.80724 -41.67091,22.71483 -92.231658,33.37975 -139.5722484,29.44038 z"
       id="path843"
       inkscape:connector-curvature="0"
       transform="scale(0.26458333)" />
    <path
       style="opacity:0.73299997;fill:#000000;fill-opacity:1;stroke:#000000;stroke-width:26.32440948;stroke-linecap:butt;stroke-linejoin:round;stroke-miterlimit:4;stroke-dasharray:none;stroke-dashoffset:0;stroke-opacity:1;paint-order:normal"
       d="M 9.2195016,859.5544 C -50.394548,853.57461 -101.89412,830.5661 -142.59856,791.72652 l -8.68194,-8.28418 0.13812,-12.8584 c 0.21074,-19.61939 5.01369,-34.88895 16.42023,-52.20329 38.140107,-57.894 131.0498316,-89.14471 220.139562,-74.04517 33.882798,5.74268 63.913578,17.15552 89.092708,33.85862 12.6723,8.40643 28.62484,23.2875 36.94661,34.46506 7.54577,10.13525 15.08669,25.64558 17.87967,36.77527 l 2.18548,8.70888 -4.01366,5.29112 c -7.43244,9.798 -20.28586,23.67483 -29.56884,31.92315 -41.36043,36.75049 -89.866,58.14991 -144.719878,63.8467 -8.87626,0.92183 -36.13781,1.13876 -44.0000004,0.35012 z"
       id="path845"
       inkscape:connector-curvature="0"
       transform="scale(0.26458333)" />
  </g>
</svg>
